Alegreya Sans SC-Medium.ufo
<glyph name="exclam" format="1">
  <advance width="260"/>
  <unicode hex="0021"/>
  <outline>
    <contour>
      <point x="98" y="658" type="line"/>
      <point x="89" y="646" type="line"/>
      <point x="92" y="230" type="line"/>
      <point x="103" y="218" type="line"/>
      <point x="162" y="226" type="line"/>
      <point x="190" y="650" type="line"/>
      <point x="178" y="663" type="line"/>
    </contour>
    <component base="period" xOffset="5"/>
  </outline>
</glyph>
<glyph name="quotesingle" format="1">
  <advance width="182"/>
  <unicode hex="0027"/>
  <outline>
    <contour>
      <point x="57" y="634" type="line"/>
      <point x="55" y="434" type="line"/>
      <point x="63" y="427" type="line"/>
      <point x="113" y="434" type="line"/>
      <point x="142" y="632" type="line"/>
      <point x="135" y="640" type="line"/>
    </contour>
  </outline>
</glyph>
<glyph name="asterisk" format="1">
  <advance width="378"/>
  <unicode hex="002A"/>
  <outline>
    <contour>
      <point x="54" y="454" type="line"/>
      <point x="54" y="446" type="line"/>
      <point x="75" y="434"/>
      <point x="95" y="421"/>
      <point x="117" y="415" type="curve"/>
      <point x="175" y="509" type="line"/>
      <point x="174" y="519" type="line"/>
      <point x="141" y="536" type="line"/>
    </contour>
    <contour>
      <point x="42" y="658" type="line"/>
      <point x="34" y="636"/>
      <point x="32" y="610"/>
      <point x="32" y="589" type="curve"/>
      <point x="135" y="556" type="line"/>
      <point x="144" y="560" type="line"/>
      <point x="149" y="597" type="line"/>
      <point x="50" y="660" type="line"/>
    </contour>
    <contour>
      <point x="193" y="513" type="line"/>
      <point x="238" y="397" type="line"/>
      <point x="246" y="395" type="line"/>
      <point x="265" y="410"/>
      <point x="282" y="425"/>
      <point x="294" y="445" type="curve"/>
      <point x="230" y="536" type="line"/>
      <point x="220" y="537" type="line"/>
    </contour>
    <contour>
      <point x="204" y="737"/>
      <point x="181" y="734"/>
      <point x="160" y="726" type="curve"/>
      <point x="163" y="612" type="line"/>
      <point x="169" y="605" type="line"/>
      <point x="206" y="609" type="line"/>
      <point x="232" y="730" type="line"/>
      <point x="228" y="737" type="line"/>
    </contour>
    <contour>
      <point x="222" y="599" type="line"/>
      <point x="218" y="590" type="line"/>
      <point x="235" y="556" type="line"/>
      <point x="349" y="569" type="line"/>
      <point x="355" y="575" type="line"/>
      <point x="347" y="597"/>
      <point x="335" y="619"/>
      <point x="323" y="637" type="curve"/>
    </contour>
  </outline>
</glyph>
<glyph name="period" format="1">
  <advance width="229"/>
  <unicode hex="002E"/>
  <outline>
    <contour>
      <point x="80" y="108"/>
      <point x="58" y="85"/>
      <point x="58" y="50" type="curve" smooth="yes"/>
      <point x="58" y="15"/>
      <point x="77" y="-6"/>
      <point x="112" y="-6" type="curve" smooth="yes"/>
      <point x="147" y="-6"/>
      <point x="169" y="17"/>
      <point x="169" y="53" type="curve" smooth="yes"/>
      <point x="169" y="87"/>
      <point x="149" y="108"/>
      <point x="116" y="108" type="curve" smooth="yes"/>
    </contour>
  </outline>
</glyph>
<glyph name="zero" format="1">
  <advance width="525"/>
  <unicode hex="0030"/>
  <outline>
    <contour>
      <point x="125" y="508"/>
      <point x="43" y="411"/>
      <point x="43" y="242" type="curve" smooth="yes"/>
      <point x="43" y="83"/>
      <point x="120" y="-8"/>
      <point x="256" y="-8" type="curve" smooth="yes"/>
      <point x="401" y="-8"/>
      <point x="482" y="88"/>
      <point x="482" y="256" type="curve" smooth="yes"/>
      <point x="482" y="417"/>
      <point x="405" y="508"/>
      <point x="270" y="508" type="curve" smooth="yes"/>
    </contour>
    <contour>
      <point x="354" y="414"/>
      <point x="403" y="358"/>
      <point x="403" y="244" type="curve" smooth="yes"/>
      <point x="403" y="136"/>
      <point x="355" y="82"/>
      <point x="263" y="82" type="curve" smooth="yes"/>
      <point x="169" y="82"/>
      <point x="123" y="138"/>
      <point x="123" y="249" type="curve" smooth="yes"/>
      <point x="123" y="360"/>
      <point x="169" y="414"/>
      <point x="262" y="414" type="curve" smooth="yes"/>
    </contour>
  </outline>
</glyph>
<glyph name="three" format="1">
  <advance width="420"/>
  <unicode hex="0033"/>
  <outline>
    <contour>
      <point x="138" y="507"/>
      <point x="82" y="487"/>
      <point x="28" y="446" type="curve"/>
      <point x="43" y="369" type="line"/>
      <point x="54" y="369" type="line"/>
      <point x="97" y="404"/>
      <point x="134" y="424"/>
      <point x="176" y="424" type="curve" smooth="yes"/>
      <point x="224" y="424"/>
      <point x="255" y="398"/>
      <point x="255" y="354" type="curve" smooth="yes"/>
      <point x="255" y="294"/>
      <point x="195" y="253"/>
      <point x="144" y="253" type="curve" smooth="yes"/>
      <point x="100" y="252" type="line"/>
      <point x="97" y="182" type="line"/>
      <point x="103" y="175" type="line"/>
      <point x="167" y="175" type="line"/>
      <point x="240" y="172"/>
      <point x="280" y="140"/>
      <point x="280" y="85" type="curve" smooth="yes"/>
      <point x="280" y="21"/>
      <point x="226" y="-18"/>
      <point x="144" y="-18" type="curve" smooth="yes"/>
      <point x="109" y="-18"/>
      <point x="74" y="-11"/>
      <point x="38" y="4" type="curve"/>
      <point x="31" y="-3" type="line"/>
      <point x="37" y="-87" type="line"/>
      <point x="68" y="-92"/>
      <point x="106" y="-96"/>
      <point x="139" y="-96" type="curve" smooth="yes"/>
      <point x="281" y="-96"/>
      <point x="377" y="-20"/>
      <point x="377" y="93" type="curve" smooth="yes"/>
      <point x="377" y="160"/>
      <point x="337" y="205"/>
      <point x="260" y="225" type="curve"/>
      <point x="260" y="229" type="line"/>
      <point x="330" y="266"/>
      <point x="358" y="325"/>
      <point x="358" y="376" type="curve" smooth="yes"/>
      <point x="358" y="454"/>
      <point x="293" y="507"/>
      <point x="196" y="507" type="curve" smooth="yes"/>
    </contour>
  </outline>
</glyph>
<glyph name="H" format="1">
  <advance width="688"/>
  <unicode hex="0048"/>
  <outline>
    <contour>
      <point x="496" y="642" type="line"/>
      <point x="503" y="193" type="line"/>
      <point x="496" y="0" type="line"/>
      <point x="600" y="0" type="line"/>
      <point x="596" y="202" type="line"/>
      <point x="602" y="642" type="line"/>
    </contour>
    <contour>
      <point x="86" y="642" type="line"/>
      <point x="93" y="193" type="line"/>
      <point x="86" y="0" type="line"/>
      <point x="190" y="0" type="line"/>
      <point x="186" y="202" type="line"/>
      <point x="192" y="642" type="line"/>
    </contour>
    <contour>
      <point x="174" y="280" type="line"/>
      <point x="336" y="283" type="line"/>
      <point x="512" y="280" type="line"/>
      <point x="512" y="367" type="line"/>
      <point x="344" y="364" type="line"/>
      <point x="174" y="367" type="line"/>
    </contour>
    <contour>
      <point x="341" y="321" type="move" name="center"/>
    </contour>
    <contour>
      <point x="341" y="642" type="move" name="top"/>
    </contour>
  </outline>
</glyph>
<glyph name="N" format="1">
  <advance width="688"/>
  <unicode hex="004E"/>
  <outline>
    <contour>
      <point x="505" y="637" type="line"/>
      <point x="507" y="161" type="line"/>
      <point x="500" y="161" type="line"/>
      <point x="198" y="642" type="line"/>
      <point x="88" y="642" type="line"/>
      <point x="93" y="190" type="line"/>
      <point x="86" y="0" type="line"/>
      <point x="182" y="0" type="line"/>
      <point x="178" y="215" type="line"/>
      <point x="179" y="481" type="line"/>
      <point x="186" y="481" type="line"/>
      <point x="488" y="0" type="line"/>
      <point x="598" y="0" type="line"/>
      <point x="595" y="192" type="line"/>
      <point x="602" y="644" type="line"/>
    </contour>
    <contour>
      <point x="341" y="0" type="move" name="bottom"/>
    </contour>
    <contour>
      <point x="342" y="642" type="move" name="top"/>
    </contour>
  </outline>
</glyph>
<glyph name="T" format="1">
  <advance width="495"/>
  <unicode hex="0054"/>
  <outline>
    <contour>
      <point x="197" y="630" type="line"/>
      <point x="204" y="193" type="line"/>
      <point x="197" y="0" type="line"/>
      <point x="301" y="0" type="line"/>
      <point x="297" y="202" type="line"/>
      <point x="302" y="630" type="line"/>
    </contour>
    <contour>
      <point x="27" y="642" type="line"/>
      <point x="19" y="564" type="line"/>
      <point x="26" y="555" type="line"/>
      <point x="144" y="561" type="line"/>
      <point x="355" y="561" type="line"/>
      <point x="471" y="555" type="line"/>
      <point x="477" y="633" type="line"/>
      <point x="471" y="642" type="line"/>
    </contour>
    <contour>
      <point x="244" y="0" type="move" name="bottom"/>
    </contour>
    <contour>
      <point x="251" y="321" type="move" name="center"/>
    </contour>
    <contour>
      <point x="251" y="642" type="move" name="top"/>
    </contour>
  </outline>
</glyph>
<glyph name="X" format="1">
  <advance width="598"/>
  <unicode hex="0058"/>
  <outline>
    <contour>
      <point x="450" y="642" type="line"/>
      <point x="424" y="588" type="line"/>
      <point x="299" y="400" type="line"/>
      <point x="177" y="586" type="line"/>
      <point x="149" y="642" type="line"/>
      <point x="24" y="642" type="line"/>
      <point x="231" y="321" type="line"/>
      <point x="19" y="0" type="line"/>
      <point x="127" y="0" type="line"/>
      <point x="154" y="51" type="line"/>
      <point x="292" y="254" type="line"/>
      <point x="422" y="57" type="line"/>
      <point x="451" y="0" type="line"/>
      <point x="576" y="0" type="line"/>
      <point x="361" y="335" type="line"/>
      <point x="561" y="642" type="line"/>
    </contour>
  </outline>
</glyph>
<glyph name="a" format="1">
  <advance width="519"/>
  <unicode hex="0061"/>
  <outline>
    <contour>
      <point x="207" y="501" type="line"/>
      <point x="21" y="0" type="line"/>
      <point x="115" y="0" type="line"/>
      <point x="130" y="67" type="line"/>
      <point x="258" y="411" type="line"/>
      <point x="264" y="411" type="line"/>
      <point x="379" y="62" type="line"/>
      <point x="391" y="0" type="line"/>
      <point x="489" y="0" type="line"/>
      <point x="319" y="501" type="line"/>
    </contour>
    <contour>
      <point x="255" y="191" type="line"/>
      <point x="125" y="193" type="line"/>
      <point x="123" y="117" type="line"/>
      <point x="248" y="118" type="line"/>
      <point x="381" y="117" type="line"/>
      <point x="379" y="193" type="line"/>
    </contour>
    <contour>
      <point x="498" y="8" type="move" name="ogonek"/>
    </contour>
    <contour>
      <point x="265" y="501" type="move" name="top"/>
    </contour>
  </outline>
</glyph>
<glyph name="b" format="1">
  <advance width="496"/>
  <unicode hex="0062"/>
  <outline>
    <contour>
      <point x="83" y="501" type="line"/>
      <point x="134" y="428" type="line"/>
      <point x="171" y="430"/>
      <point x="199" y="430"/>
      <point x="226" y="430" type="curve" smooth="yes"/>
      <point x="297" y="430"/>
      <point x="325" y="412"/>
      <point x="325" y="365" type="curve" smooth="yes"/>
      <point x="325" y="320"/>
      <point x="302" y="298"/>
      <point x="258" y="288" type="curve"/>
      <point x="118" y="293" type="line"/>
      <point x="118" y="217" type="line"/>
      <point x="269" y="219" type="line"/>
      <point x="326" y="210"/>
      <point x="354" y="188"/>
      <point x="354" y="146" type="curve" smooth="yes"/>
      <point x="354" y="93"/>
      <point x="311" y="67"/>
      <point x="235" y="67" type="curve"/>
      <point x="210" y="67"/>
      <point x="168" y="70"/>
      <point x="139" y="75" type="curve"/>
      <point x="83" y="0" type="line"/>
      <point x="127" y="-2"/>
      <point x="187" y="-3"/>
      <point x="221" y="-3" type="curve" smooth="yes"/>
      <point x="372" y="-3"/>
      <point x="453" y="43"/>
      <point x="453" y="142" type="curve" smooth="yes"/>
      <point x="453" y="207"/>
      <point x="416" y="245"/>
      <point x="345" y="260" type="curve"/>
      <point x="396" y="281"/>
      <point x="425" y="322"/>
      <point x="425" y="378" type="curve" smooth="yes"/>
      <point x="425" y="459"/>
      <point x="363" y="502"/>
      <point x="259" y="502" type="curve" smooth="yes"/>
    </contour>
    <contour>
      <point x="83" y="501" type="line"/>
      <point x="87" y="150" type="line"/>
      <point x="83" y="0" type="line"/>
      <point x="178" y="0" type="line"/>
      <point x="174" y="159" type="line"/>
      <point x="179" y="501" type="line"/>
    </contour>
  </outline>
</glyph>
<glyph name="c" format="1">
  <advance width="458"/>
  <unicode hex="0063"/>
  <outline>
    <contour>
      <point x="130" y="507"/>
      <point x="40" y="414"/>
      <point x="40" y="247" type="curve" smooth="yes"/>
      <point x="40" y="84"/>
      <point x="124" y="-7"/>
      <point x="277" y="-7" type="curve" smooth="yes"/>
      <point x="329" y="-7"/>
      <point x="372" y="4"/>
      <point x="415" y="24" type="curve"/>
      <point x="423" y="109" type="line"/>
      <point x="413" y="114" type="line"/>
      <point x="377" y="89"/>
      <point x="328" y="73"/>
      <point x="282" y="73" type="curve" smooth="yes"/>
      <point x="190" y="73"/>
      <point x="141" y="136"/>
      <point x="141" y="256" type="curve" smooth="yes"/>
      <point x="141" y="373"/>
      <point x="190" y="428"/>
      <point x="279" y="428" type="curve" smooth="yes"/>
      <point x="327" y="428"/>
      <point x="372" y="412"/>
      <point x="404" y="387" type="curve"/>
      <point x="413" y="390" type="line"/>
      <point x="431" y="475" type="line"/>
      <point x="391" y="496"/>
      <point x="342" y="507"/>
      <point x="288" y="507" type="curve" smooth="yes"/>
    </contour>
    <contour>
      <point x="267" y="0" type="move" name="bottom"/>
    </contour>
    <contour>
      <point x="267" y="501" type="move" name="top"/>
    </contour>
  </outline>
</glyph>
<glyph name="f" format="1">
  <advance width="394"/>
  <unicode hex="0066"/>
  <outline>
    <contour>
      <point x="78" y="501" type="line"/>
      <point x="82" y="150" type="line"/>
      <point x="78" y="0" type="line"/>
      <point x="174" y="0" type="line"/>
      <point x="170" y="159" type="line"/>
      <point x="175" y="501" type="line"/>
    </contour>
    <contour>
      <point x="251" y="279" type="line"/>
      <point x="146" y="280" type="line"/>
      <point x="146" y="202" type="line"/>
      <point x="243" y="203" type="line"/>
      <point x="341" y="201" type="line"/>
      <point x="348" y="274" type="line"/>
      <point x="341" y="282" type="line"/>
    </contour>
    <contour>
      <point x="143" y="501" type="line"/>
      <point x="141" y="430" type="line"/>
      <point x="143" y="424" type="line"/>
      <point x="258" y="425" type="line"/>
      <point x="383" y="420" type="line"/>
      <point x="390" y="493" type="line"/>
      <point x="385" y="501" type="line"/>
    </contour>
  </outline>
</glyph>
<glyph name="i" format="1">
  <advance width="267"/>
  <unicode hex="0069"/>
  <outline>
    <contour>
      <point x="83" y="501" type="line"/>
      <point x="87" y="150" type="line"/>
      <point x="83" y="0" type="line"/>
      <point x="179" y="0" type="line"/>
      <point x="175" y="159" type="line"/>
      <point x="180" y="501" type="line"/>
    </contour>
    <contour>
      <point x="203" y="8" type="move" name="ogonek"/>
    </contour>
    <contour>
      <point x="135" y="501" type="move" name="top"/>
    </contour>
  </outline>
</glyph>
<glyph name="j" format="1">
  <advance width="300"/>
  <unicode hex="006A"/>
  <outline>
    <contour>
      <point x="118" y="501" type="line"/>
      <point x="121" y="155" type="line"/>
      <point x="121" y="93" type="line"/>
      <point x="121" y="39"/>
      <point x="98" y="7"/>
      <point x="37" y="-25" type="curve"/>
      <point x="37" y="-34" type="line"/>
      <point x="72" y="-83" type="line"/>
      <point x="176" y="-37"/>
      <point x="210" y="10"/>
      <point x="210" y="94" type="curve"/>
      <point x="210" y="165" type="line"/>
      <point x="214" y="501" type="line"/>
    </contour>
    <contour>
      <point x="28" y="501" type="line"/>
      <point x="21" y="434" type="line"/>
      <point x="28" y="428" type="line"/>
      <point x="132" y="429" type="line"/>
      <point x="131" y="501" type="line"/>
    </contour>
  </outline>
</glyph>
<glyph name="k" format="1">
  <advance width="503"/>
  <unicode hex="006B"/>
  <outline>
    <contour>
      <point x="370" y="501" type="line"/>
      <point x="338" y="454" type="line"/>
      <point x="178" y="267" type="line"/>
      <point x="178" y="260" type="line"/>
      <point x="243" y="169"/>
      <point x="313" y="82"/>
      <point x="384" y="-3" type="curve"/>
      <point x="398" y="-9" type="line"/>
      <point x="429" y="-6"/>
      <point x="462" y="-0"/>
      <point x="492" y="8" type="curve"/>
      <point x="494" y="22" type="line"/>
      <point x="419" y="99"/>
      <point x="346" y="182"/>
      <point x="280" y="266" type="curve"/>
      <point x="481" y="502" type="line"/>
    </contour>
    <contour>
      <point x="83" y="501" type="line"/>
      <point x="87" y="150" type="line"/>
      <point x="83" y="0" type="line"/>
      <point x="179" y="0" type="line"/>
      <point x="175" y="159" type="line"/>
      <point x="180" y="501" type="line"/>
    </contour>
    <contour>
      <point x="243" y="0" type="move" name="bottom"/>
    </contour>
    <contour>
      <point x="234" y="501" type="move" name="top"/>
    </contour>
  </outline>
</glyph>
<glyph name="m" format="1">
  <advance width="684"/>
  <unicode hex="006D"/>
  <outline>
    <contour>
      <point x="470" y="501" type="line"/>
      <point x="445" y="428" type="line"/>
      <point x="346" y="180" type="line"/>
      <point x="339" y="180" type="line"/>
      <point x="245" y="427" type="line"/>
      <point x="222" y="501" type="line"/>
      <point x="109" y="501" type="line"/>
      <point x="55" y="0" type="line"/>
      <point x="137" y="0" type="line"/>
      <point x="149" y="161" type="line"/>
      <point x="172" y="356" type="line"/>
      <point x="179" y="356" type="line"/>
      <point x="299" y="53" type="line"/>
      <point x="374" y="53" type="line"/>
      <point x="504" y="356" type="line"/>
      <point x="511" y="356" type="line"/>
      <point x="534" y="152" type="line"/>
      <point x="543" y="0" type="line"/>
      <point x="629" y="0" type="line"/>
      <point x="579" y="501" type="line"/>
    </contour>
  </outline>
</glyph>
<glyph name="n" format="1">
  <advance width="600"/>
  <unicode hex="006E"/>
  <outline>
    <contour>
      <point x="429" y="498" type="line"/>
      <point x="431" y="149" type="line"/>
      <point x="424" y="149" type="line"/>
      <point x="187" y="501" type="line"/>
      <point x="84" y="501" type="line"/>
      <point x="87" y="147" type="line"/>
      <point x="83" y="0" type="line"/>
      <point x="170" y="0" type="line"/>
      <point x="168" y="170" type="line"/>
      <point x="169" y="352" type="line"/>
      <point x="174" y="352" type="line"/>
      <point x="412" y="0" type="line"/>
      <point x="515" y="0" type="line"/>
      <point x="512" y="153" type="line"/>
      <point x="517" y="503" type="line"/>
    </contour>
    <contour>
      <point x="298" y="0" type="move" name="bottom"/>
    </contour>
    <contour>
      <point x="298" y="501" type="move" name="top"/>
    </contour>
  </outline>
</glyph>
<glyph name="r" format="1">
  <advance width="508"/>
  <unicode hex="0072"/>
  <outline>
    <contour>
      <point x="83" y="501" type="line"/>
      <point x="136" y="425" type="line"/>
      <point x="245" y="428" type="line"/>
      <point x="311" y="425"/>
      <point x="342" y="401"/>
      <point x="342" y="346" type="curve" smooth="yes"/>
      <point x="342" y="294"/>
      <point x="315" y="262"/>
      <point x="263" y="247" type="curve"/>
      <point x="117" y="252" type="line"/>
      <point x="118" y="173" type="line"/>
      <point x="269" y="174" type="line"/>
      <point x="376" y="197"/>
      <point x="443" y="267"/>
      <point x="443" y="355" type="curve" smooth="yes"/>
      <point x="443" y="449"/>
      <point x="382" y="502"/>
      <point x="273" y="502" type="curve"/>
    </contour>
    <contour>
      <point x="83" y="501" type="line"/>
      <point x="87" y="150" type="line"/>
      <point x="83" y="0" type="line"/>
      <point x="179" y="0" type="line"/>
      <point x="175" y="159" type="line"/>
      <point x="180" y="501" type="line"/>
    </contour>
    <contour>
      <point x="238" y="222" type="line"/>
      <point x="276" y="146"/>
      <point x="321" y="73"/>
      <point x="366" y="2" type="curve"/>
      <point x="381" y="-7" type="line"/>
      <point x="413" y="-5"/>
      <point x="442" y="2"/>
      <point x="472" y="11" type="curve"/>
      <point x="473" y="23" type="line"/>
      <point x="420" y="88"/>
      <point x="372" y="155"/>
      <point x="327" y="223" type="curve"/>
    </contour>
    <contour>
      <point x="238" y="0" type="move" name="bottom"/>
    </contour>
    <contour>
      <point x="238" y="501" type="move" name="top"/>
    </contour>
  </outline>
</glyph>
<glyph name="s" format="1">
  <advance width="433"/>
  <unicode hex="0073"/>
  <outline>
    <contour>
      <point x="127" y="507"/>
      <point x="57" y="440"/>
      <point x="57" y="357" type="curve" smooth="yes"/>
      <point x="57" y="204"/>
      <point x="290" y="221"/>
      <point x="290" y="130" type="curve" smooth="yes"/>
      <point x="290" y="95"/>
      <point x="257" y="66"/>
      <point x="208" y="66" type="curve" smooth="yes"/>
      <point x="167" y="66"/>
      <point x="109" y="87"/>
      <point x="68" y="128" type="curve"/>
      <point x="57" y="122" type="line"/>
      <point x="44" y="25" type="line"/>
      <point x="95" y="3"/>
      <point x="152" y="-7"/>
      <point x="196" y="-7" type="curve" smooth="yes"/>
      <point x="322" y="-7"/>
      <point x="385" y="68"/>
      <point x="385" y="147" type="curve" smooth="yes"/>
      <point x="385" y="299"/>
      <point x="152" y="283"/>
      <point x="152" y="371" type="curve" smooth="yes"/>
      <point x="152" y="402"/>
      <point x="179" y="434"/>
      <point x="232" y="434" type="curve" smooth="yes"/>
      <point x="267" y="434"/>
      <point x="302" y="419"/>
      <point x="341" y="388" type="curve"/>
      <point x="356" y="391" type="line"/>
      <point x="371" y="482" type="line"/>
      <point x="330" y="498"/>
      <point x="284" y="507"/>
      <point x="243" y="507" type="curve" smooth="yes"/>
    </contour>
    <contour>
      <point x="199" y="0" type="move" name="bottom"/>
    </contour>
    <contour>
      <point x="220" y="501" type="move" name="top"/>
    </contour>
  </outline>
</glyph>
<glyph name="t" format="1">
  <advance width="441"/>
  <unicode hex="0074"/>
  <outline>
    <contour>
      <point x="174" y="488" type="line"/>
      <point x="177" y="150" type="line"/>
      <point x="173" y="0" type="line"/>
      <point x="269" y="0" type="line"/>
      <point x="265" y="159" type="line"/>
      <point x="269" y="488" type="line"/>
    </contour>
    <contour>
      <point x="35" y="501" type="line"/>
      <point x="28" y="424" type="line"/>
      <point x="35" y="416" type="line"/>
      <point x="133" y="423" type="line"/>
      <point x="310" y="423" type="line"/>
      <point x="407" y="416" type="line"/>
      <point x="412" y="493" type="line"/>
      <point x="408" y="501" type="line"/>
    </contour>
    <contour>
      <point x="218" y="0" type="move" name="bottom"/>
    </contour>
    <contour>
      <point x="207" y="251" type="move" name="center"/>
    </contour>
    <contour>
      <point x="213" y="501" type="move" name="top"/>
    </contour>
  </outline>
</glyph>
<glyph name="v" format="1">
  <advance width="508"/>
  <unicode hex="0076"/>
  <outline>
    <contour>
      <point x="395" y="501" type="line"/>
      <point x="382" y="433" type="line"/>
      <point x="254" y="91" type="line"/>
      <point x="248" y="91" type="line"/>
      <point x="134" y="438" type="line"/>
      <point x="121" y="501" type="line"/>
      <point x="23" y="501" type="line"/>
      <point x="191" y="0" type="line"/>
      <point x="306" y="0" type="line"/>
      <point x="491" y="501" type="line"/>
    </contour>
  </outline>
</glyph>
<glyph name="w" format="1">
  <advance width="771"/>
  <unicode hex="0077"/>
  <outline>
    <contour>
      <point x="662" y="501" type="line"/>
      <point x="649" y="436" type="line"/>
      <point x="531" y="103" type="line"/>
      <point x="524" y="103" type="line"/>
      <point x="417" y="432" type="line"/>
      <point x="406" y="501" type="line"/>
      <point x="307" y="501" type="line"/>
      <point x="344" y="378" type="line"/>
      <point x="247" y="103" type="line"/>
      <point x="240" y="103" type="line"/>
      <point x="135" y="441" type="line"/>
      <point x="126" y="501" type="line"/>
      <point x="30" y="501" type="line"/>
      <point x="184" y="0" type="line"/>
      <point x="288" y="0" type="line"/>
      <point x="378" y="248" type="line"/>
      <point x="385" y="248" type="line"/>
      <point x="471" y="0" type="line"/>
      <point x="575" y="0" type="line"/>
      <point x="754" y="501" type="line"/>
    </contour>
    <contour>
      <point x="366" y="501" type="move" name="top"/>
    </contour>
  </outline>
</glyph>
<glyph name="x" format="1">
  <advance width="527"/>
  <unicode hex="0078"/>
  <outline>
    <contour>
      <point x="384" y="501" type="line"/>
      <point x="362" y="456" type="line"/>
      <point x="266" y="322" type="line"/>
      <point x="171" y="453" type="line"/>
      <point x="148" y="501" type="line"/>
      <point x="30" y="501" type="line"/>
      <point x="202" y="249" type="line"/>
      <point x="28" y="0" type="line"/>
      <point x="128" y="0" type="line"/>
      <point x="151" y="43" type="line"/>
      <point x="258" y="187" type="line"/>
      <point x="359" y="48" type="line"/>
      <point x="383" y="0" type="line"/>
      <point x="499" y="0" type="line"/>
      <point x="323" y="263" type="line"/>
      <point x="487" y="501" type="line"/>
    </contour>
  </outline>
</glyph>
<glyph name="z" format="1">
  <advance width="475"/>
  <unicode hex="007A"/>
  <outline>
    <contour>
      <point x="381" y="501" type="line"/>
      <point x="151" y="501" type="line"/>
      <point x="51" y="502" type="line"/>
      <point x="43" y="423" type="line"/>
      <point x="47" y="417" type="line"/>
      <point x="131" y="426" type="line"/>
      <point x="316" y="426" type="line"/>
      <point x="38" y="67" type="line"/>
      <point x="38" y="-2" type="line"/>
      <point x="96" y="0" type="line"/>
      <point x="313" y="0" type="line"/>
      <point x="428" y="-2" type="line"/>
      <point x="436" y="78" type="line"/>
      <point x="432" y="83" type="line"/>
      <point x="343" y="74" type="line"/>
      <point x="153" y="74" type="line"/>
      <point x="429" y="431" type="line"/>
      <point x="429" y="502" type="line"/>
    </contour>
    <contour>
      <point x="224" y="501" type="move" name="top"/>
    </contour>
  </outline>
</glyph>
<glyph name="bar" format="1">
  <advance width="311"/>
  <unicode hex="007C"/>
  <outline>
    <contour>
      <point x="117" y="794" type="line"/>
      <point x="116" y="282" type="line"/>
      <point x="116" y="-251" type="line"/>
      <point x="124" y="-261" type="line"/>
      <point x="194" y="-256" type="line"/>
      <point x="194" y="289" type="line"/>
      <point x="196" y="793" type="line"/>
      <point x="189" y="800" type="line"/>
    </contour>
  </outline>
</glyph>
<glyph name="asciitilde" format="1">
  <advance width="480"/>
  <unicode hex="007E"/>
  <outline>
    <contour>
      <point x="182" y="248"/>
      <point x="301" y="205"/>
      <point x="352" y="198" type="curve"/>
      <point x="363" y="202" type="line"/>
      <point x="440" y="284" type="line"/>
      <point x="440" y="294" type="line"/>
      <point x="412" y="328" type="line"/>
      <point x="402" y="328" type="line"/>
      <point x="372" y="298"/>
      <point x="351" y="275"/>
      <point x="333" y="275" type="curve" smooth="yes"/>
      <point x="301" y="275"/>
      <point x="181" y="317"/>
      <point x="130" y="326" type="curve"/>
      <point x="119" y="320" type="line"/>
      <point x="42" y="239" type="line"/>
      <point x="42" y="229" type="line"/>
      <point x="69" y="195" type="line"/>
      <point x="80" y="195" type="line"/>
      <point x="110" y="224"/>
      <point x="130" y="248"/>
      <point x="150" y="248" type="curve" smooth="yes"/>
    </contour>
  </outline>
</glyph>
<glyph name="sterling" format="1">
  <advance width="428"/>
  <unicode hex="00A3"/>
  <outline>
    <contour>
      <point x="162" y="594"/>
      <point x="97" y="533"/>
      <point x="97" y="423" type="curve" smooth="yes"/>
      <point x="99" y="164" type="line" smooth="yes"/>
      <point x="99" y="104"/>
      <point x="75" y="71"/>
      <point x="26" y="60" type="curve"/>
      <point x="21" y="6" type="line"/>
      <point x="26" y="0" type="line"/>
      <point x="281" y="0" type="line" smooth="yes"/>
      <point x="392" y="-2" type="line"/>
      <point x="399" y="71" type="line"/>
      <point x="395" y="78" type="line"/>
      <point x="299" y="71" type="line"/>
      <point x="143" y="71" type="line"/>
      <point x="143" y="74" type="line"/>
      <point x="170" y="96"/>
      <point x="182" y="125"/>
      <point x="182" y="172" type="curve" smooth="yes"/>
      <point x="184" y="437" type="line" smooth="yes"/>
      <point x="184" y="498"/>
      <point x="214" y="529"/>
      <point x="270" y="529" type="curve" smooth="yes"/>
      <point x="300" y="529"/>
      <point x="336" y="519"/>
      <point x="376" y="496" type="curve"/>
      <point x="382" y="502" type="line"/>
      <point x="388" y="577" type="line"/>
      <point x="347" y="588"/>
      <point x="312" y="594"/>
      <point x="277" y="594" type="curve" smooth="yes"/>
    </contour>
    <contour>
      <point x="27" y="339" type="line"/>
      <point x="22" y="289" type="line"/>
      <point x="26" y="283" type="line"/>
      <point x="310" y="283" type="line"/>
      <point x="315" y="333" type="line"/>
      <point x="311" y="339" type="line"/>
    </contour>
  </outline>
</glyph>
<glyph name="brokenbar" format="1">
  <advance width="311"/>
  <unicode hex="00A6"/>
  <outline>
    <contour>
      <point x="116" y="794" type="line"/>
      <point x="116" y="373" type="line"/>
      <point x="124" y="366" type="line"/>
      <point x="194" y="374" type="line"/>
      <point x="196" y="793" type="line"/>
      <point x="188" y="800" type="line"/>
    </contour>
    <contour>
      <point x="116" y="152" type="line"/>
      <point x="116" y="-251" type="line"/>
      <point x="124" y="-261" type="line"/>
      <point x="194" y="-256" type="line"/>
      <point x="194" y="150" type="line"/>
      <point x="185" y="160" type="line"/>
    </contour>
  </outline>
</glyph>
<glyph name="section" format="1">
  <advance width="425"/>
  <unicode hex="00A7"/>
  <outline>
    <contour>
      <point x="103" y="415"/>
      <point x="38" y="348"/>
      <point x="38" y="273" type="curve" smooth="yes"/>
      <point x="38" y="134"/>
      <point x="260" y="108"/>
      <point x="260" y="27" type="curve" smooth="yes"/>
      <point x="260" y="-3"/>
      <point x="232" y="-34"/>
      <point x="182" y="-34" type="curve" smooth="yes"/>
      <point x="141" y="-34"/>
      <point x="94" y="-14"/>
      <point x="54" y="22" type="curve"/>
      <point x="44" y="15" type="line"/>
      <point x="31" y="-69" type="line"/>
      <point x="72" y="-88"/>
      <point x="129" y="-100"/>
      <point x="171" y="-100" type="curve" smooth="yes"/>
      <point x="275" y="-100"/>
      <point x="347" y="-34"/>
      <point x="347" y="43" type="curve" smooth="yes"/>
      <point x="347" y="177"/>
      <point x="124" y="202"/>
      <point x="124" y="294" type="curve" smooth="yes"/>
      <point x="124" y="329"/>
      <point x="156" y="361"/>
      <point x="221" y="383" type="curve"/>
      <point x="194" y="432" type="line"/>
    </contour>
    <contour>
      <point x="155" y="649"/>
      <point x="83" y="583"/>
      <point x="83" y="506" type="curve" smooth="yes"/>
      <point x="83" y="373"/>
      <point x="305" y="351"/>
      <point x="305" y="254" type="curve" smooth="yes"/>
      <point x="305" y="222"/>
      <point x="281" y="190"/>
      <point x="207" y="167" type="curve"/>
      <point x="238" y="121" type="line"/>
      <point x="331" y="138"/>
      <point x="391" y="204"/>
      <point x="391" y="277" type="curve" smooth="yes"/>
      <point x="391" y="416"/>
      <point x="169" y="441"/>
      <point x="169" y="521" type="curve" smooth="yes"/>
      <point x="169" y="550"/>
      <point x="197" y="581"/>
      <point x="241" y="581" type="curve" smooth="yes"/>
      <point x="270" y="581"/>
      <point x="307" y="568"/>
      <point x="346" y="541" type="curve"/>
      <point x="359" y="544" type="line"/>
      <point x="372" y="626" type="line"/>
      <point x="334" y="641"/>
      <point x="290" y="649"/>
      <point x="256" y="649" type="curve" smooth="yes"/>
    </contour>
  </outline>
</glyph>
<glyph name="degree" format="1">
  <advance width="293"/>
  <unicode hex="00B0"/>
  <outline>
    <contour>
      <point x="76" y="650"/>
      <point x="19" y="594"/>
      <point x="19" y="523" type="curve" smooth="yes"/>
      <point x="19" y="452"/>
      <point x="76" y="397"/>
      <point x="147" y="397" type="curve" smooth="yes"/>
      <point x="218" y="397"/>
      <point x="275" y="452"/>
      <point x="275" y="523" type="curve" smooth="yes"/>
      <point x="275" y="594"/>
      <point x="218" y="650"/>
      <point x="147" y="650" type="curve" smooth="yes"/>
    </contour>
    <contour>
      <point x="190" y="603"/>
      <point x="226" y="567"/>
      <point x="226" y="523" type="curve" smooth="yes"/>
      <point x="226" y="479"/>
      <point x="190" y="443"/>
      <point x="146" y="443" type="curve" smooth="yes"/>
      <point x="101" y="443"/>
      <point x="65" y="479"/>
      <point x="65" y="523" type="curve" smooth="yes"/>
      <point x="65" y="567"/>
      <point x="101" y="603"/>
      <point x="146" y="603" type="curve" smooth="yes"/>
    </contour>
  </outline>
</glyph>
<glyph name="AE" format="1">
  <advance width="814"/>
  <unicode hex="00C6"/>
  <outline>
    <contour>
      <point x="310" y="642" type="line"/>
      <point x="-16" y="0" type="line"/>
      <point x="88" y="0" type="line"/>
      <point x="116" y="77" type="line"/>
      <point x="352" y="541" type="line"/>
      <point x="358" y="541" type="line"/>
      <point x="424" y="72" type="line"/>
      <point x="429" y="0" type="line"/>
      <point x="794" y="0" type="line"/>
      <point x="802" y="79" type="line"/>
      <point x="795" y="88" type="line"/>
      <point x="631" y="82" type="line"/>
      <point x="522" y="82" type="line"/>
      <point x="457" y="559" type="line"/>
      <point x="550" y="559" type="line"/>
      <point x="709" y="554" type="line"/>
      <point x="718" y="633" type="line"/>
      <point x="711" y="642" type="line"/>
    </contour>
    <contour>
      <point x="467" y="342" type="line"/>
      <point x="150" y="266" type="line"/>
      <point x="122" y="176" type="line"/>
      <point x="476" y="263" type="line"/>
      <point x="707" y="313" type="line"/>
      <point x="700" y="386" type="line"/>
      <point x="692" y="393" type="line"/>
    </contour>
    <contour>
      <point x="499" y="642" type="move" name="top"/>
    </contour>
  </outline>
</glyph>
<glyph name="thorn" format="1">
  <advance width="483"/>
  <unicode hex="00FE"/>
  <outline>
    <contour>
      <point x="84" y="421" type="line"/>
      <point x="138" y="346" type="line"/>
      <point x="247" y="350" type="line"/>
      <point x="313" y="347"/>
      <point x="345" y="321"/>
      <point x="345" y="260" type="curve" smooth="yes"/>
      <point x="345" y="201"/>
      <point x="314" y="171"/>
      <point x="259" y="158" type="curve"/>
      <point x="119" y="163" type="line"/>
      <point x="119" y="85" type="line"/>
      <point x="235" y="86" type="line"/>
      <point x="371" y="86"/>
      <point x="447" y="153"/>
      <point x="447" y="269" type="curve" smooth="yes"/>
      <point x="447" y="369"/>
      <point x="386" y="422"/>
      <point x="276" y="422" type="curve"/>
    </contour>
    <contour>
      <point x="83" y="501" type="line"/>
      <point x="87" y="150" type="line"/>
      <point x="83" y="0" type="line"/>
      <point x="180" y="0" type="line"/>
      <point x="176" y="159" type="line"/>
      <point x="182" y="501" type="line"/>
    </contour>
  </outline>
</glyph>
<glyph name="aogonek" format="1">
  <advance width="519"/>
  <unicode hex="0105"/>
  <outline>
    <contour>
      <point x="410" y="1" type="line"/>
      <point x="370" y="-58"/>
      <point x="357" y="-89"/>
      <point x="357" y="-118" type="curve" smooth="yes"/>
      <point x="357" y="-166"/>
      <point x="391" y="-196"/>
      <point x="436" y="-196" type="curve" smooth="yes"/>
      <point x="471" y="-196"/>
      <point x="498" y="-178"/>
      <point x="527" y="-144" type="curve"/>
      <point x="516" y="-94" type="line"/>
      <point x="510" y="-94" type="line"/>
      <point x="492" y="-118"/>
      <point x="472" y="-132"/>
      <point x="450" y="-132" type="curve" smooth="yes"/>
      <point x="433" y="-132"/>
      <point x="420" y="-124"/>
      <point x="420" y="-99" type="curve" smooth="yes"/>
      <point x="420" y="-83"/>
      <point x="426" y="-56"/>
      <point x="468" y="1" type="curve"/>
    </contour>
    <component base="a"/>
  </outline>
</glyph>
<glyph name="hbar" format="1">
  <advance width="625"/>
  <unicode hex="0127"/>
  <outline>
    <contour>
      <point x="42" y="422" type="line"/>
      <point x="37" y="371" type="line"/>
      <point x="41" y="364" type="line"/>
      <point x="582" y="364" type="line"/>
      <point x="587" y="417" type="line"/>
      <point x="581" y="422" type="line"/>
    </contour>
    <component base="h" xOffset="9"/>
  </outline>
</glyph>
<glyph name="Iogonek" format="1">
  <advance width="279"/>
  <unicode hex="012E"/>
  <outline>
    <contour>
      <point x="87" y="0" type="line"/>
      <point x="47" y="-56"/>
      <point x="36" y="-84"/>
      <point x="36" y="-115" type="curve" smooth="yes"/>
      <point x="36" y="-165"/>
      <point x="68" y="-197"/>
      <point x="117" y="-197" type="curve" smooth="yes"/>
      <point x="145" y="-197"/>
      <point x="170" y="-186"/>
      <point x="194" y="-165" type="curve"/>
      <point x="185" y="-111" type="line"/>
      <point x="177" y="-111" type="line"/>
      <point x="163" y="-125"/>
      <point x="147" y="-134"/>
      <point x="131" y="-134" type="curve" smooth="yes"/>
      <point x="111" y="-134"/>
      <point x="98" y="-122"/>
      <point x="98" y="-99" type="curve" smooth="yes"/>
      <point x="98" y="-78"/>
      <point x="109" y="-52"/>
      <point x="146" y="2" type="curve"/>
    </contour>
    <component base="I"/>
  </outline>
</glyph>
<glyph name="Eng" format="1">
  <advance width="688"/>
  <unicode hex="014A"/>
  <outline>
    <contour>
      <point x="505" y="637" type="line"/>
      <point x="507" y="166" type="line"/>
      <point x="500" y="166" type="line"/>
      <point x="198" y="642" type="line"/>
      <point x="88" y="642" type="line"/>
      <point x="93" y="190" type="line"/>
      <point x="86" y="0" type="line"/>
      <point x="182" y="0" type="line"/>
      <point x="178" y="215" type="line"/>
      <point x="179" y="481" type="line"/>
      <point x="186" y="481" type="line"/>
      <point x="492" y="1" type="line"/>
      <point x="475" y="-37"/>
      <point x="439" y="-66"/>
      <point x="380" y="-98" type="curve"/>
      <point x="380" y="-109" type="line"/>
      <point x="415" y="-165" type="line"/>
      <point x="550" y="-107"/>
      <point x="597" y="-47"/>
      <point x="597" y="57" type="curve"/>
      <point x="595" y="192" type="line"/>
      <point x="602" y="644" type="line"/>
    </contour>
  </outline>
</glyph>
<glyph name="eng" format="1">
  <advance width="600"/>
  <unicode hex="014B"/>
  <outline>
    <contour>
      <point x="429" y="498" type="line"/>
      <point x="431" y="159" type="line"/>
      <point x="424" y="159" type="line"/>
      <point x="187" y="501" type="line"/>
      <point x="84" y="501" type="line"/>
      <point x="88" y="147" type="line"/>
      <point x="83" y="0" type="line"/>
      <point x="170" y="0" type="line"/>
      <point x="168" y="170" type="line"/>
      <point x="168" y="352" type="line"/>
      <point x="174" y="352" type="line"/>
      <point x="421" y="-2" type="line"/>
      <point x="414" y="-33"/>
      <point x="395" y="-55"/>
      <point x="360" y="-79" type="curve"/>
      <point x="360" y="-89" type="line"/>
      <point x="392" y="-129" type="line"/>
      <point x="484" y="-85"/>
      <point x="514" y="-41"/>
      <point x="514" y="39" type="curve"/>
      <point x="512" y="153" type="line"/>
      <point x="517" y="503" type="line"/>
    </contour>
  </outline>
</glyph>
<glyph name="tbar" format="1">
  <advance width="441"/>
  <unicode hex="0167"/>
  <outline>
    <contour>
      <point x="86" y="255" type="line"/>
      <point x="82" y="202" type="line"/>
      <point x="89" y="195" type="line"/>
      <point x="361" y="195" type="line"/>
      <point x="365" y="248" type="line"/>
      <point x="357" y="255" type="line"/>
    </contour>
    <component base="t"/>
  </outline>
</glyph>
<glyph name="oogonek" format="1">
  <advance width="558"/>
  <unicode hex="01EB"/>
  <outline>
    <contour>
      <point x="355" y="61" type="line"/>
      <point x="286" y="-43" type="line" smooth="yes"/>
      <point x="269" y="-68"/>
      <point x="262" y="-91"/>
      <point x="262" y="-114" type="curve" smooth="yes"/>
      <point x="262" y="-162"/>
      <point x="294" y="-197"/>
      <point x="345" y="-197" type="curve" smooth="yes"/>
      <point x="381" y="-197"/>
      <point x="413" y="-179"/>
      <point x="446" y="-145" type="curve"/>
      <point x="434" y="-100" type="line"/>
      <point x="429" y="-100" type="line"/>
      <point x="406" y="-123"/>
      <point x="381" y="-135"/>
      <point x="358" y="-135" type="curve" smooth="yes"/>
      <point x="333" y="-135"/>
      <point x="322" y="-121"/>
      <point x="322" y="-102" type="curve" smooth="yes"/>
      <point x="322" y="-88"/>
      <point x="328" y="-69"/>
      <point x="339" y="-53" type="curve" smooth="yes"/>
      <point x="409" y="61" type="line"/>
    </contour>
    <component base="o"/>
  </outline>
</glyph>
<glyph name="breve" format="1">
  <advance width="389"/>
  <unicode hex="02D8"/>
  <outline>
    <contour>
      <point x="290" y="683" type="line"/>
      <point x="276" y="628"/>
      <point x="244" y="600"/>
      <point x="195" y="600" type="curve" smooth="yes"/>
      <point x="146" y="600"/>
      <point x="113" y="628"/>
      <point x="99" y="683" type="curve"/>
      <point x="84" y="683" type="line"/>
      <point x="58" y="647" type="line"/>
      <point x="74" y="579"/>
      <point x="114" y="528"/>
      <point x="192" y="528" type="curve" smooth="yes"/>
      <point x="270" y="528"/>
      <point x="313" y="577"/>
      <point x="331" y="647" type="curve" smooth="yes"/>
      <point x="305" y="683" type="line"/>
    </contour>
    <contour>
      <point x="194" y="461" type="move" name="_top"/>
    </contour>
  </outline>
</glyph>
<glyph name="dotaccent" format="1">
  <advance width="249"/>
  <unicode hex="02D9"/>
  <outline>
    <component base="period" xOffset="10" yOffset="568"/>
    <contour>
      <point x="124" y="461" type="move" name="_top"/>
    </contour>
  </outline>
</glyph>
<glyph name="uni1E9E" format="1">
  <advance width="647"/>
  <unicode hex="1E9E"/>
  <outline>
    <contour>
      <point x="165" y="649"/>
      <point x="69" y="557"/>
      <point x="70" y="420" type="curve" smooth="yes"/>
      <point x="74" y="190" type="line"/>
      <point x="67" y="0" type="line"/>
      <point x="171" y="0" type="line"/>
      <point x="167" y="202" type="line"/>
      <point x="169" y="420" type="line"/>
      <point x="170" y="512"/>
      <point x="223" y="565"/>
      <point x="323" y="565" type="curve" smooth="yes"/>
      <point x="364" y="565"/>
      <point x="403" y="556"/>
      <point x="449" y="535" type="curve"/>
      <point x="294" y="336" type="line"/>
      <point x="299" y="317" type="line"/>
      <point x="457" y="267"/>
      <point x="519" y="227"/>
      <point x="519" y="163" type="curve" smooth="yes"/>
      <point x="519" y="111"/>
      <point x="480" y="73"/>
      <point x="422" y="73" type="curve" smooth="yes"/>
      <point x="374" y="73"/>
      <point x="316" y="100"/>
      <point x="269" y="143" type="curve"/>
      <point x="257" y="137" type="line"/>
      <point x="243" y="35" type="line"/>
      <point x="295" y="7"/>
      <point x="358" y="-8"/>
      <point x="413" y="-8" type="curve" smooth="yes"/>
      <point x="527" y="-8"/>
      <point x="621" y="57"/>
      <point x="621" y="174" type="curve" smooth="yes"/>
      <point x="621" y="275"/>
      <point x="550" y="321"/>
      <point x="421" y="370" type="curve"/>
      <point x="578" y="566" type="line"/>
      <point x="573" y="584" type="line"/>
      <point x="491" y="623"/>
      <point x="414" y="649"/>
      <point x="328" y="649" type="curve" smooth="yes"/>
    </contour>
  </outline>
</glyph>
<glyph name="endash" format="1">
  <advance width="473"/>
  <unicode hex="2013"/>
  <outline>
    <contour>
      <point x="-9" y="292" type="line"/>
      <point x="-15" y="229" type="line"/>
      <point x="-8" y="221" type="line"/>
      <point x="483" y="221" type="line"/>
      <point x="488" y="284" type="line"/>
      <point x="481" y="292" type="line"/>
    </contour>
  </outline>
</glyph>
<glyph name="emdash" format="1">
  <advance width="912"/>
  <unicode hex="2014"/>
  <outline>
    <contour>
      <point x="-10" y="292" type="line"/>
      <point x="-16" y="229" type="line"/>
      <point x="-9" y="221" type="line"/>
      <point x="924" y="221" type="line"/>
      <point x="930" y="284" type="line"/>
      <point x="922" y="292" type="line"/>
    </contour>
  </outline>
</glyph>
<glyph name="perthousand" format="1">
  <advance width="1211"/>
  <unicode hex="2030"/>
  <outline>
    <contour>
      <point x="160" y="516" type="move"/>
    </contour>
    <component base="fraction" xOffset="374"/>
    <component base="zero.dnom" xOffset="462" yScale="0.92"/>
    <component base="zero.dnom" xOffset="836" yScale="0.92"/>
    <component base="zero.numr" yOffset="55" yScale="0.92"/>
  </outline>
</glyph>
<glyph name="fraction" format="1">
  <advance width="88"/>
  <unicode hex="2044"/>
  <outline>
    <contour>
      <point x="-233" y="-52" type="line"/>
      <point x="-228" y="-65" type="line"/>
      <point x="-183" y="-91" type="line"/>
      <point x="286" y="640" type="line"/>
      <point x="279" y="655" type="line"/>
      <point x="236" y="681" type="line"/>
    </contour>
  </outline>
</glyph>
<glyph name="radical" format="1">
  <advance width="508"/>
  <unicode hex="221A"/>
  <outline>
    <contour>
      <point x="472" y="710" type="line"/>
      <point x="463" y="703" type="line"/>
      <point x="250" y="92" type="line"/>
      <point x="243" y="92" type="line"/>
      <point x="140" y="456" type="line"/>
      <point x="135" y="461" type="line"/>
      <point x="-23" y="461" type="line"/>
      <point x="-26" y="395" type="line"/>
      <point x="-22" y="390" type="line"/>
      <point x="69" y="390" type="line"/>
      <point x="184" y="0" type="line"/>
      <point x="292" y="0" type="line"/>
      <point x="541" y="710" type="line"/>
    </contour>
  </outline>
</glyph>
<glyph name="C.ss01" format="1">
  <advance width="458"/>
  <outline>
    <contour>
      <point x="-100" y="461" type="line"/>
      <point x="558" y="461" type="line"/>
      <point x="558" y="501" type="line"/>
      <point x="-100" y="501" type="line"/>
    </contour>
    <contour>
      <point x="-100" y="0" type="line"/>
      <point x="558" y="0" type="line"/>
      <point x="558" y="40" type="line"/>
      <point x="-100" y="40" type="line"/>
    </contour>
    <component base="c" xOffset="7" yOffset="9" xScale="0.97" yScale="0.97"/>
  </outline>
</glyph>
<glyph name="a.sups" format="1">
  <advance width="328"/>
  <outline>
    <contour>
      <point x="128" y="650"/>
      <point x="83" y="636"/>
      <point x="46" y="613" type="curve"/>
      <point x="56" y="557" type="line"/>
      <point x="62" y="554" type="line"/>
      <point x="100" y="578"/>
      <point x="130" y="590"/>
      <point x="155" y="590" type="curve" smooth="yes"/>
      <point x="185" y="590"/>
      <point x="199" y="576"/>
      <point x="199" y="546" type="curve" smooth="yes"/>
      <point x="198" y="516" type="line"/>
      <point x="98" y="498" type="line" smooth="yes"/>
      <point x="53" y="490"/>
      <point x="30" y="465"/>
      <point x="30" y="421" type="curve" smooth="yes"/>
      <point x="30" y="364"/>
      <point x="67" y="330"/>
      <point x="127" y="329" type="curve"/>
      <point x="153" y="335"/>
      <point x="179" y="353"/>
      <point x="200" y="378" type="curve"/>
      <point x="203" y="378" type="line"/>
      <point x="211" y="343"/>
      <point x="225" y="330"/>
      <point x="256" y="330" type="curve" smooth="yes"/>
      <point x="274" y="330"/>
      <point x="288" y="335"/>
      <point x="302" y="345" type="curve"/>
      <point x="310" y="392" type="line"/>
      <point x="304" y="397" type="line"/>
      <point x="298" y="393"/>
      <point x="292" y="392"/>
      <point x="287" y="392" type="curve" smooth="yes"/>
      <point x="276" y="392"/>
      <point x="272" y="399"/>
      <point x="272" y="416" type="curve" smooth="yes"/>
      <point x="272" y="432"/>
      <point x="278" y="542"/>
      <point x="278" y="562" type="curve" smooth="yes"/>
      <point x="278" y="618"/>
      <point x="239" y="650"/>
      <point x="170" y="650" type="curve" smooth="yes"/>
    </contour>
    <contour>
      <point x="197" y="419" type="line"/>
      <point x="180" y="399"/>
      <point x="161" y="389"/>
      <point x="145" y="389" type="curve" smooth="yes"/>
      <point x="121" y="389"/>
      <point x="108" y="404"/>
      <point x="108" y="429" type="curve" smooth="yes"/>
      <point x="108" y="448"/>
      <point x="118" y="459"/>
      <point x="135" y="462" type="curve" smooth="yes"/>
      <point x="198" y="476" type="line"/>
    </contour>
    <contour>
      <point x="313" y="6" type="move" name="ogonek"/>
    </contour>
    <contour>
      <point x="173" y="309" type="move" name="top"/>
    </contour>
  </outline>
</glyph>
<glyph name="acute.cap" format="1">
  <advance width="389"/>
  <outline>
    <contour>
      <point x="207" y="653"/>
      <point x="144" y="620"/>
      <point x="77" y="586" type="curve"/>
      <point x="94" y="542" type="line"/>
      <point x="105" y="538" type="line"/>
      <point x="172" y="564"/>
      <point x="237" y="589"/>
      <point x="309" y="620" type="curve"/>
      <point x="312" y="630" type="line"/>
      <point x="286" y="691" type="line"/>
      <point x="276" y="693" type="line"/>
    </contour>
    <contour>
      <point x="169" y="461" type="move" name="_top"/>
    </contour>
  </outline>
</glyph>
<glyph name="brevegrave" format="1">
  <advance width="389"/>
  <outline>
    <contour>
      <point x="92" y="757" type="line"/>
      <point x="92" y="748" type="line"/>
      <point x="126" y="713"/>
      <point x="160" y="680"/>
      <point x="195" y="646" type="curve"/>
      <point x="205" y="644" type="line"/>
      <point x="238" y="672" type="line"/>
      <point x="207" y="709"/>
      <point x="178" y="747"/>
      <point x="149" y="787" type="curve"/>
      <point x="140" y="789" type="line"/>
    </contour>
    <component base="breve.cap" yOffset="-20"/>
    <contour>
      <point x="195" y="461" type="move" name="_top"/>
    </contour>
  </outline>
</glyph>
<glyph name="brevetilde" format="1">
  <advance width="389"/>
  <outline>
    <component base="breve.cap" xOffset="9" yOffset="-2" xScale="0.97" yScale="0.97"/>
    <component base="tilde" xOffset="17" yOffset="156" xScale="0.93" yScale="0.96"/>
    <contour>
      <point x="195" y="461" type="move" name="_top"/>
    </contour>
  </outline>
</glyph>
<glyph name="circumflex.cap" format="1">
  <advance width="389"/>
  <outline>
    <component base="caron.cap" xOffset="389" yOffset="1229" xScale="-1" yScale="-1"/>
    <contour>
      <point x="194" y="461" type="move" name="_top"/>
    </contour>
  </outline>
</glyph>
<glyph name="dieresis.i" format="1">
  <advance width="389"/>
  <outline>
    <component base="dotaccent" xOffset="9" yOffset="30" xScale="0.94" yScale="0.94"/>
    <component base="dotaccent" xOffset="147" yOffset="30" xScale="0.94" yScale="0.94"/>
    <contour>
      <point x="194" y="461" type="move" name="_top"/>
    </contour>
  </outline>
</glyph>
<glyph name="e.sups" format="1">
  <advance width="316"/>
  <outline>
    <contour>
      <point x="84" y="650"/>
      <point x="28" y="589"/>
      <point x="28" y="488" type="curve" smooth="yes"/>
      <point x="28" y="389"/>
      <point x="83" y="328"/>
      <point x="179" y="328" type="curve" smooth="yes"/>
      <point x="212" y="328"/>
      <point x="249" y="336"/>
      <point x="278" y="348" type="curve"/>
      <point x="286" y="409" type="line" smooth="yes"/>
      <point x="280" y="414" type="line"/>
      <point x="248" y="399"/>
      <point x="215" y="392"/>
      <point x="187" y="392" type="curve" smooth="yes"/>
      <point x="131" y="392"/>
      <point x="108" y="427"/>
      <point x="108" y="493" type="curve" smooth="yes"/>
      <point x="108" y="557"/>
      <point x="129" y="592"/>
      <point x="170" y="592" type="curve" smooth="yes"/>
      <point x="201" y="592"/>
      <point x="223" y="571"/>
      <point x="223" y="534" type="curve" smooth="yes"/>
      <point x="223" y="530"/>
      <point x="223" y="528"/>
      <point x="222" y="521" type="curve"/>
      <point x="96" y="520" type="line"/>
      <point x="96" y="478" type="line"/>
      <point x="287" y="478" type="line"/>
      <point x="294" y="488" type="line"/>
      <point x="295" y="499"/>
      <point x="296" y="515"/>
      <point x="296" y="524" type="curve" smooth="yes"/>
      <point x="296" y="602"/>
      <point x="251" y="650"/>
      <point x="172" y="650" type="curve" smooth="yes"/>
    </contour>
    <contour>
      <point x="185" y="0" type="move" name="bottom"/>
    </contour>
    <contour>
      <point x="302" y="6" type="move" name="ogonek"/>
    </contour>
    <contour>
      <point x="176" y="306" type="move" name="top"/>
    </contour>
  </outline>
</glyph>
<glyph name="eight.dnom" format="1">
  <advance width="349"/>
  <outline>
    <contour>
      <point x="104" y="387"/>
      <point x="51" y="347"/>
      <point x="51" y="280" type="curve" smooth="yes"/>
      <point x="51" y="232"/>
      <point x="80" y="207"/>
      <point x="115" y="189" type="curve"/>
      <point x="115" y="185" type="line"/>
      <point x="70" y="168"/>
      <point x="38" y="141"/>
      <point x="38" y="92" type="curve" smooth="yes"/>
      <point x="38" y="35"/>
      <point x="83" y="-5"/>
      <point x="165" y="-5" type="curve" smooth="yes"/>
      <point x="251" y="-5"/>
      <point x="307" y="37"/>
      <point x="307" y="108" type="curve" smooth="yes"/>
      <point x="307" y="159"/>
      <point x="272" y="181"/>
      <point x="234" y="199" type="curve"/>
      <point x="234" y="204" type="line"/>
      <point x="272" y="224"/>
      <point x="296" y="251"/>
      <point x="296" y="293" type="curve" smooth="yes"/>
      <point x="296" y="350"/>
      <point x="254" y="387"/>
      <point x="182" y="387" type="curve" smooth="yes"/>
    </contour>
    <contour>
      <point x="203" y="150"/>
      <point x="237" y="136"/>
      <point x="237" y="101" type="curve" smooth="yes"/>
      <point x="237" y="73"/>
      <point x="215" y="50"/>
      <point x="173" y="50" type="curve" smooth="yes"/>
      <point x="132" y="50"/>
      <point x="110" y="71"/>
      <point x="110" y="103" type="curve" smooth="yes"/>
      <point x="110" y="138"/>
      <point x="136" y="153"/>
      <point x="167" y="164" type="curve"/>
    </contour>
    <contour>
      <point x="208" y="330"/>
      <point x="228" y="312"/>
      <point x="228" y="284" type="curve" smooth="yes"/>
      <point x="228" y="253"/>
      <point x="207" y="237"/>
      <point x="182" y="223" type="curve"/>
      <point x="150" y="236"/>
      <point x="123" y="251"/>
      <point x="123" y="282" type="curve" smooth="yes"/>
      <point x="123" y="312"/>
      <point x="142" y="330"/>
      <point x="177" y="330" type="curve" smooth="yes"/>
    </contour>
  </outline>
</glyph>
<glyph name="five.sinf" format="1">
  <advance width="311"/>
  <outline>
    <contour>
      <point x="204" y="262" type="line"/>
      <point x="104" y="262" type="line"/>
      <point x="66" y="263" type="line"/>
      <point x="56" y="253" type="line"/>
      <point x="55" y="72" type="line"/>
      <point x="59" y="65" type="line"/>
      <point x="124" y="54" type="line" smooth="yes"/>
      <point x="170" y="44"/>
      <point x="189" y="27"/>
      <point x="189" y="-1" type="curve" smooth="yes"/>
      <point x="189" y="-39"/>
      <point x="158" y="-62"/>
      <point x="105" y="-62" type="curve" smooth="yes"/>
      <point x="81" y="-62"/>
      <point x="57" y="-60"/>
      <point x="32" y="-52" type="curve"/>
      <point x="26" y="-59" type="line"/>
      <point x="31" y="-118" type="line"/>
      <point x="54" y="-122"/>
      <point x="83" y="-125"/>
      <point x="104" y="-125" type="curve" smooth="yes"/>
      <point x="205" y="-125"/>
      <point x="273" y="-74"/>
      <point x="273" y="7" type="curve" smooth="yes"/>
      <point x="273" y="63"/>
      <point x="238" y="97"/>
      <point x="162" y="112" type="curve" smooth="yes"/>
      <point x="121" y="122" type="line"/>
      <point x="123" y="196" type="line"/>
      <point x="204" y="196" type="line"/>
      <point x="260" y="191" type="line"/>
      <point x="267" y="196" type="line"/>
      <point x="275" y="260" type="line"/>
      <point x="270" y="264" type="line"/>
    </contour>
  </outline>
</glyph>
<glyph name="i.sups" format="1">
  <advance width="171"/>
  <outline>
    <contour>
      <point x="47" y="638" type="line"/>
      <point x="50" y="462" type="line"/>
      <point x="46" y="335" type="line"/>
      <point x="132" y="335" type="line"/>
      <point x="128" y="470" type="line"/>
      <point x="132" y="645" type="line"/>
    </contour>
    <contour>
      <point x="63" y="795"/>
      <point x="45" y="776"/>
      <point x="45" y="748" type="curve" smooth="yes"/>
      <point x="45" y="719"/>
      <point x="60" y="703"/>
      <point x="87" y="703" type="curve" smooth="yes"/>
      <point x="116" y="703"/>
      <point x="133" y="720"/>
      <point x="133" y="750" type="curve" smooth="yes"/>
      <point x="133" y="778"/>
      <point x="118" y="795"/>
      <point x="92" y="795" type="curve" smooth="yes"/>
    </contour>
  </outline>
</glyph>
<glyph name="iacute_j.loclNLD" format="1">
  <advance width="567"/>
  <outline>
    <contour>
      <point x="201" y="219" type="move"/>
    </contour>
    <component base="iacute"/>
    <component base="j" xOffset="267"/>
    <component base="acute" xOffset="197" yOffset="39"/>
    <contour>
      <point x="132" y="499" type="move" name="_top"/>
    </contour>
    <contour>
      <point x="196" y="8" type="move" name="ogonek"/>
    </contour>
    <contour>
      <point x="132" y="499" type="move" name="top"/>
    </contour>
  </outline>
</glyph>
<glyph name="j.sups" format="1">
  <advance width="195"/>
  <outline>
    <contour>
      <point x="55" y="795"/>
      <point x="37" y="776"/>
      <point x="37" y="748" type="curve" smooth="yes"/>
      <point x="37" y="719"/>
      <point x="53" y="703"/>
      <point x="80" y="703" type="curve" smooth="yes"/>
      <point x="107" y="703"/>
      <point x="125" y="720"/>
      <point x="125" y="750" type="curve" smooth="yes"/>
      <point x="125" y="778"/>
      <point x="110" y="795"/>
      <point x="83" y="795" type="curve" smooth="yes"/>
    </contour>
    <contour>
      <point x="48" y="641" type="line"/>
      <point x="9" y="641" type="line"/>
      <point x="5" y="582" type="line"/>
      <point x="9" y="575" type="line"/>
      <point x="47" y="577" type="line"/>
      <point x="48" y="462" type="line"/>
      <point x="48" y="349" type="line" smooth="yes"/>
      <point x="48" y="301"/>
      <point x="37" y="274"/>
      <point x="9" y="251" type="curve"/>
      <point x="9" y="244" type="line"/>
      <point x="38" y="205" type="line"/>
      <point x="101" y="240"/>
      <point x="129" y="282"/>
      <point x="129" y="352" type="curve"/>
      <point x="125" y="470" type="line"/>
      <point x="130" y="644" type="line"/>
      <point x="127" y="646" type="line"/>
    </contour>
  </outline>
</glyph>
<glyph name="l.sups" format="1">
  <advance width="172"/>
  <outline>
    <contour>
      <point x="46" y="796" type="line"/>
      <point x="49" y="462" type="line"/>
      <point x="45" y="335" type="line"/>
      <point x="130" y="335" type="line"/>
      <point x="127" y="470" type="line"/>
      <point x="130" y="801" type="line"/>
    </contour>
    <contour>
      <point x="96" y="0" type="move" name="bottom"/>
    </contour>
    <contour>
      <point x="96" y="450" type="move" name="top"/>
    </contour>
    <contour>
      <point x="172" y="307" type="move" name="topright"/>
    </contour>
  </outline>
</glyph>
<glyph name="m.sups" format="1">
  <advance width="539"/>
  <outline>
    <contour>
      <point x="370" y="644"/>
      <point x="338" y="623"/>
      <point x="312" y="595" type="curve"/>
      <point x="298" y="595" type="line"/>
      <point x="301" y="544" type="line"/>
      <point x="326" y="568"/>
      <point x="350" y="580"/>
      <point x="373" y="580" type="curve" smooth="yes"/>
      <point x="403" y="580"/>
      <point x="419" y="561"/>
      <point x="419" y="525" type="curve"/>
      <point x="416" y="335" type="line"/>
      <point x="500" y="335" type="line"/>
      <point x="499" y="470" type="line"/>
      <point x="500" y="558" type="line" smooth="yes"/>
      <point x="500" y="616"/>
      <point x="465" y="646"/>
      <point x="404" y="646" type="curve"/>
    </contour>
    <contour>
      <point x="46" y="638" type="line"/>
      <point x="49" y="462" type="line"/>
      <point x="45" y="335" type="line"/>
      <point x="129" y="335" type="line"/>
      <point x="127" y="470" type="line"/>
      <point x="127" y="645" type="line"/>
    </contour>
    <contour>
      <point x="195" y="399" type="move"/>
    </contour>
    <contour>
      <point x="187" y="644"/>
      <point x="158" y="623"/>
      <point x="131" y="597" type="curve"/>
      <point x="118" y="597" type="line"/>
      <point x="117" y="543" type="line"/>
      <point x="142" y="567"/>
      <point x="165" y="580"/>
      <point x="187" y="580" type="curve" smooth="yes"/>
      <point x="219" y="580"/>
      <point x="235" y="561"/>
      <point x="235" y="525" type="curve"/>
      <point x="231" y="335" type="line"/>
      <point x="316" y="335" type="line"/>
      <point x="312" y="470" type="line"/>
      <point x="315" y="558" type="line" smooth="yes"/>
      <point x="315" y="616"/>
      <point x="282" y="646"/>
      <point x="219" y="646" type="curve"/>
    </contour>
  </outline>
</glyph>
<glyph name="one.dnom" format="1">
  <advance width="265"/>
  <outline>
    <contour>
      <point x="12" y="344" type="line"/>
      <point x="12" y="276" type="line"/>
      <point x="18" y="272" type="line"/>
      <point x="97" y="292" type="line"/>
      <point x="97" y="126" type="line"/>
      <point x="94" y="0" type="line"/>
      <point x="181" y="0" type="line"/>
      <point x="179" y="136" type="line"/>
      <point x="182" y="377" type="line"/>
      <point x="170" y="387" type="line"/>
    </contour>
  </outline>
</glyph>
<glyph name="one.tf" format="1">
  <advance width="475"/>
  <outline>
    <contour>
      <point x="36" y="530" type="line"/>
      <point x="36" y="449" type="line"/>
      <point x="45" y="444" type="line"/>
      <point x="208" y="477" type="line"/>
      <point x="208" y="196" type="line"/>
      <point x="203" y="0" type="line"/>
      <point x="306" y="0" type="line"/>
      <point x="301" y="207" type="line"/>
      <point x="307" y="583" type="line"/>
      <point x="292" y="594" type="line"/>
    </contour>
  </outline>
</glyph>
<glyph name="one.tosf" format="1">
  <advance width="475"/>
  <outline>
    <contour>
      <point x="41" y="443" type="line"/>
      <point x="41" y="362" type="line"/>
      <point x="51" y="356" type="line"/>
      <point x="206" y="390" type="line"/>
      <point x="206" y="196" type="line"/>
      <point x="202" y="0" type="line"/>
      <point x="303" y="0" type="line"/>
      <point x="300" y="207" type="line"/>
      <point x="304" y="495" type="line"/>
      <point x="290" y="506" type="line"/>
    </contour>
  </outline>
</glyph>
<glyph name="seven.dnom" format="1">
  <advance width="304"/>
  <outline>
    <contour>
      <point x="21" y="316" type="line"/>
      <point x="25" y="307" type="line"/>
      <point x="86" y="313" type="line"/>
      <point x="194" y="313" type="line"/>
      <point x="57" y="24" type="line"/>
      <point x="62" y="11" type="line"/>
      <point x="133" y="-7" type="line"/>
      <point x="170" y="88" type="line"/>
      <point x="279" y="322" type="line"/>
      <point x="278" y="383" type="line"/>
      <point x="246" y="382" type="line"/>
      <point x="101" y="382" type="line"/>
      <point x="27" y="383" type="line"/>
    </contour>
  </outline>
</glyph>
<glyph name="seven.sinf" format="1">
  <advance width="304"/>
  <outline>
    <contour>
      <point x="21" y="196" type="line"/>
      <point x="25" y="187" type="line"/>
      <point x="86" y="193" type="line"/>
      <point x="194" y="193" type="line"/>
      <point x="57" y="-96" type="line"/>
      <point x="62" y="-109" type="line"/>
      <point x="133" y="-127" type="line"/>
      <point x="170" y="-32" type="line"/>
      <point x="279" y="202" type="line"/>
      <point x="278" y="263" type="line"/>
      <point x="246" y="262" type="line"/>
      <point x="101" y="262" type="line"/>
      <point x="27" y="263" type="line"/>
    </contour>
  </outline>
</glyph>
<glyph name="six.sinf" format="1">
  <advance width="342"/>
  <outline>
    <contour>
      <point x="227" y="267" type="line"/>
      <point x="105" y="215"/>
      <point x="33" y="127"/>
      <point x="33" y="20" type="curve"/>
      <point x="33" y="-71"/>
      <point x="84" y="-125"/>
      <point x="170" y="-125" type="curve"/>
      <point x="265" y="-125"/>
      <point x="310" y="-68"/>
      <point x="310" y="3" type="curve"/>
      <point x="310" y="64"/>
      <point x="272" y="114"/>
      <point x="199" y="114" type="curve" smooth="yes"/>
      <point x="175" y="114"/>
      <point x="151" y="107"/>
      <point x="131" y="94" type="curve"/>
      <point x="115" y="112" type="line"/>
      <point x="105" y="32" type="line"/>
      <point x="127" y="47"/>
      <point x="150" y="56"/>
      <point x="174" y="56" type="curve" smooth="yes"/>
      <point x="212" y="56"/>
      <point x="232" y="35"/>
      <point x="232" y="-5" type="curve"/>
      <point x="232" y="-49"/>
      <point x="211" y="-72"/>
      <point x="172" y="-72" type="curve"/>
      <point x="127" y="-72"/>
      <point x="112" y="-39"/>
      <point x="112" y="21" type="curve"/>
      <point x="112" y="123"/>
      <point x="158" y="174"/>
      <point x="286" y="223" type="curve"/>
      <point x="286" y="231" type="line"/>
      <point x="232" y="267" type="line"/>
    </contour>
  </outline>
</glyph>
<glyph name="three.tf" format="1">
  <advance width="475"/>
  <outline>
    <contour>
      <point x="160" y="595"/>
      <point x="102" y="576"/>
      <point x="47" y="535" type="curve"/>
      <point x="63" y="457" type="line"/>
      <point x="73" y="457" type="line"/>
      <point x="118" y="492"/>
      <point x="157" y="512"/>
      <point x="200" y="512" type="curve" smooth="yes"/>
      <point x="250" y="512"/>
      <point x="283" y="486"/>
      <point x="283" y="443" type="curve" smooth="yes"/>
      <point x="283" y="383"/>
      <point x="221" y="342"/>
      <point x="166" y="342" type="curve" smooth="yes"/>
      <point x="121" y="341" type="line"/>
      <point x="119" y="271" type="line"/>
      <point x="125" y="264" type="line"/>
      <point x="190" y="264" type="line"/>
      <point x="268" y="261"/>
      <point x="309" y="229"/>
      <point x="309" y="174" type="curve" smooth="yes"/>
      <point x="309" y="111"/>
      <point x="253" y="72"/>
      <point x="168" y="72" type="curve" smooth="yes"/>
      <point x="131" y="72"/>
      <point x="95" y="79"/>
      <point x="58" y="93" type="curve"/>
      <point x="51" y="86" type="line"/>
      <point x="57" y="3" type="line"/>
      <point x="89" y="-3"/>
      <point x="129" y="-7"/>
      <point x="163" y="-7" type="curve" smooth="yes"/>
      <point x="308" y="-7"/>
      <point x="407" y="70"/>
      <point x="407" y="182" type="curve" smooth="yes"/>
      <point x="407" y="249"/>
      <point x="364" y="294"/>
      <point x="284" y="314" type="curve"/>
      <point x="284" y="318" type="line"/>
      <point x="356" y="355"/>
      <point x="386" y="413"/>
      <point x="386" y="464" type="curve" smooth="yes"/>
      <point x="386" y="542"/>
      <point x="319" y="595"/>
      <point x="220" y="595" type="curve" smooth="yes"/>
    </contour>
  </outline>
</glyph>
<glyph name="two.tf" format="1">
  <advance width="475"/>
  <outline>
    <contour>
      <point x="171" y="593"/>
      <point x="104" y="560"/>
      <point x="46" y="506" type="curve"/>
      <point x="63" y="427" type="line"/>
      <point x="75" y="427" type="line"/>
      <point x="117" y="477"/>
      <point x="170" y="506"/>
      <point x="217" y="506" type="curve" smooth="yes"/>
      <point x="267" y="506"/>
      <point x="293" y="475"/>
      <point x="293" y="436" type="curve" smooth="yes"/>
      <point x="293" y="387"/>
      <point x="250" y="331"/>
      <point x="184" y="245" type="curve" smooth="yes"/>
      <point x="42" y="66" type="line"/>
      <point x="42" y="2" type="line"/>
      <point x="48" y="-2" type="line"/>
      <point x="87" y="0" type="line"/>
      <point x="326" y="0" type="line"/>
      <point x="441" y="-5" type="line"/>
      <point x="453" y="77" type="line"/>
      <point x="447" y="86" type="line"/>
      <point x="355" y="81" type="line"/>
      <point x="175" y="81" type="line"/>
      <point x="173" y="85" type="line"/>
      <point x="272" y="221" type="line" smooth="yes"/>
      <point x="353" y="329"/>
      <point x="393" y="396"/>
      <point x="393" y="459" type="curve" smooth="yes"/>
      <point x="393" y="541"/>
      <point x="328" y="593"/>
      <point x="241" y="593" type="curve" smooth="yes"/>
    </contour>
  </outline>
</glyph>
<glyph name="up" format="1">
  <advance width="415"/>
  <outline>
    <contour>
      <point x="63" y="103" type="line"/>
      <point x="352" y="103" type="line"/>
      <point x="207" y="392" type="line"/>
    </contour>
  </outline>
</glyph>
<glyph name="v.sups" format="1">
  <advance width="290"/>
  <outline>
    <contour>
      <point x="11" y="642" type="line"/>
      <point x="98" y="335" type="line"/>
      <point x="191" y="335" type="line"/>
      <point x="292" y="644" type="line"/>
      <point x="217" y="644" type="line"/>
      <point x="206" y="590" type="line"/>
      <point x="151" y="417" type="line"/>
      <point x="146" y="417" type="line"/>
      <point x="100" y="596" type="line"/>
      <point x="92" y="646" type="line"/>
    </contour>
  </outline>
</glyph>
<glyph name="x.sups" format="1">
  <advance width="304"/>
  <outline>
    <contour>
      <point x="10" y="641" type="line"/>
      <point x="97" y="491" type="line"/>
      <point x="8" y="335" type="line"/>
      <point x="85" y="335" type="line"/>
      <point x="98" y="365" type="line"/>
      <point x="145" y="442" type="line"/>
      <point x="187" y="370" type="line"/>
      <point x="203" y="331" type="line"/>
      <point x="293" y="338" type="line"/>
      <point x="203" y="491" type="line"/>
      <point x="291" y="643" type="line"/>
      <point x="216" y="643" type="line"/>
      <point x="199" y="611" type="line"/>
      <point x="157" y="540" type="line"/>
      <point x="116" y="610" type="line"/>
      <point x="102" y="646" type="line"/>
    </contour>
  </outline>
</glyph>
